<?xml version="1.0" encoding="UTF-8"?>
<!--Generator: Apple Native CoreSVG 341-->
<!DOCTYPE svg
PUBLIC "-//W3C//DTD SVG 1.1//EN"
       "http://www.w3.org/Graphics/SVG/1.1/DTD/svg11.dtd">
<svg version="1.1" xmlns="http://www.w3.org/2000/svg" xmlns:xlink="http://www.w3.org/1999/xlink" viewBox="0 0 3300 2200">
 <!--glyph: "101403", point size: 100.0, font version: "21.1d1e1", template writer version: "138.0.0"-->
 <style>.defaults {-sfsymbols-variable-value-mode:color;-sfsymbols-draw-reverses-motion-groups:true}

.monochrome-0 {-sfsymbols-motion-group:0;-sfsymbols-layer-tags:figure.strengthtraining.traditional}

.multicolor-0:tintColor {-sfsymbols-motion-group:0;-sfsymbols-layer-tags:figure.strengthtraining.traditional}

.hierarchical-0:primary {-sfsymbols-motion-group:0;-sfsymbols-layer-tags:figure.strengthtraining.traditional}

.SFSymbolsPreviewWireframe {fill:none;opacity:1.0;stroke:black;stroke-width:0.5}
</style>
 <g id="Notes">
  <rect height="2200" id="artboard" style="fill:white;opacity:1" width="3300" x="0" y="0"/>
  <line style="fill:none;stroke:black;opacity:1;stroke-width:0.5;" x1="263" x2="3036" y1="292" y2="292"/>
  <text style="stroke:none;fill:black;font-family:sans-serif;font-size:13;font-weight:bold;" transform="matrix(1 0 0 1 263 322)">Weight/Scale Variations</text>
  <text style="stroke:none;fill:black;font-family:sans-serif;font-size:13;text-anchor:middle;" transform="matrix(1 0 0 1 559.711 322)">Ultralight</text>
  <text style="stroke:none;fill:black;font-family:sans-serif;font-size:13;text-anchor:middle;" transform="matrix(1 0 0 1 856.422 322)">Thin</text>
  <text style="stroke:none;fill:black;font-family:sans-serif;font-size:13;text-anchor:middle;" transform="matrix(1 0 0 1 1153.13 322)">Light</text>
  <text style="stroke:none;fill:black;font-family:sans-serif;font-size:13;text-anchor:middle;" transform="matrix(1 0 0 1 1449.84 322)">Regular</text>
  <text style="stroke:none;fill:black;font-family:sans-serif;font-size:13;text-anchor:middle;" transform="matrix(1 0 0 1 1746.56 322)">Medium</text>
  <text style="stroke:none;fill:black;font-family:sans-serif;font-size:13;text-anchor:middle;" transform="matrix(1 0 0 1 2043.27 322)">Semibold</text>
  <text style="stroke:none;fill:black;font-family:sans-serif;font-size:13;text-anchor:middle;" transform="matrix(1 0 0 1 2339.98 322)">Bold</text>
  <text style="stroke:none;fill:black;font-family:sans-serif;font-size:13;text-anchor:middle;" transform="matrix(1 0 0 1 2636.69 322)">Heavy</text>
  <text style="stroke:none;fill:black;font-family:sans-serif;font-size:13;text-anchor:middle;" transform="matrix(1 0 0 1 2933.4 322)">Black</text>
  <line style="fill:none;stroke:black;opacity:1;stroke-width:0.5;" x1="263" x2="3036" y1="1903" y2="1903"/>
  <g transform="matrix(0.2 0 0 0.2 263 1933)">
   <path d="m46.2402 4.15039c21.7773 0 39.4531-17.627 39.4531-39.4043s-17.6758-39.4043-39.4531-39.4043c-21.7285 0-39.4043 17.627-39.4043 39.4043s17.6758 39.4043 39.4043 39.4043Zm0-7.42188c-17.6758 0-31.9336-14.3066-31.9336-31.9824s14.2578-31.9824 31.9336-31.9824 31.9824 14.3066 31.9824 31.9824-14.3066 31.9824-31.9824 31.9824Zm3.61328-17.7734v-28.4668c0-2.24609-1.46484-3.75977-3.71094-3.75977-2.14844 0-3.61328 1.51367-3.61328 3.75977v28.4668c0 2.19727 1.46484 3.71094 3.61328 3.71094 2.24609 0 3.71094-1.51367 3.71094-3.71094Zm-17.8223-10.5957h28.418c2.19727 0 3.71094-1.46484 3.71094-3.61328 0-2.19727-1.51367-3.71094-3.71094-3.71094h-28.418c-2.24609 0-3.75977 1.51367-3.75977 3.71094 0 2.14844 1.51367 3.61328 3.75977 3.61328Z"/>
  </g>
  <g transform="matrix(0.2 0 0 0.2 281.506 1933)">
   <path d="m58.5449 14.5508c27.4902 0 49.8047-22.3145 49.8047-49.8047s-22.3145-49.8047-49.8047-49.8047-49.8047 22.3145-49.8047 49.8047 22.3145 49.8047 49.8047 49.8047Zm0-8.30078c-22.9492 0-41.5039-18.5547-41.5039-41.5039s18.5547-41.5039 41.5039-41.5039 41.5039 18.5547 41.5039 41.5039-18.5547 41.5039-41.5039 41.5039Zm4.05273-23.0957v-36.9141c0-2.49023-1.70898-4.19922-4.15039-4.19922-2.39258 0-4.05273 1.70898-4.05273 4.19922v36.9141c0 2.44141 1.66016 4.15039 4.05273 4.15039 2.44141 0 4.15039-1.66016 4.15039-4.15039Zm-22.5586-14.4043h36.9629c2.44141 0 4.15039-1.61133 4.15039-4.00391 0-2.44141-1.70898-4.15039-4.15039-4.15039h-36.9629c-2.49023 0-4.15039 1.70898-4.15039 4.15039 0 2.39258 1.66016 4.00391 4.15039 4.00391Z"/>
  </g>
  <g transform="matrix(0.2 0 0 0.2 304.924 1933)">
   <path d="m74.8535 28.3203c35.1074 0 63.623-28.4668 63.623-63.5742s-28.5156-63.623-63.623-63.623-63.5742 28.5156-63.5742 63.623 28.4668 63.5742 63.5742 63.5742Zm0-9.08203c-30.127 0-54.4922-24.3652-54.4922-54.4922s24.3652-54.4922 54.4922-54.4922 54.4922 24.3652 54.4922 54.4922-24.3652 54.4922-54.4922 54.4922Zm4.44336-30.3223v-48.4863c0-2.73438-1.85547-4.63867-4.54102-4.63867-2.58789 0-4.44336 1.9043-4.44336 4.63867v48.4863c0 2.68555 1.85547 4.58984 4.44336 4.58984 2.68555 0 4.54102-1.85547 4.54102-4.58984Zm-28.7109-19.7754h48.4863c2.68555 0 4.58984-1.80664 4.58984-4.39453 0-2.73438-1.85547-4.58984-4.58984-4.58984h-48.4863c-2.73438 0-4.58984 1.85547-4.58984 4.58984 0 2.58789 1.85547 4.39453 4.58984 4.39453Z"/>
  </g>
  <text style="stroke:none;fill:black;font-family:sans-serif;font-size:13;font-weight:bold;" transform="matrix(1 0 0 1 263 1953)">Design Variations</text>
  <text style="stroke:none;fill:black;font-family:sans-serif;font-size:13;" transform="matrix(1 0 0 1 263 1971)">Symbols are supported in up to nine weights and three scales.</text>
  <text style="stroke:none;fill:black;font-family:sans-serif;font-size:13;" transform="matrix(1 0 0 1 263 1989)">For optimal layout with text and other symbols, vertically align</text>
  <text style="stroke:none;fill:black;font-family:sans-serif;font-size:13;" transform="matrix(1 0 0 1 263 2007)">symbols with the adjacent text.</text>
  <line style="fill:none;stroke:#00AEEF;stroke-width:0.5;opacity:1.0;" x1="776" x2="776" y1="1919" y2="1933"/>
  <g transform="matrix(0.2 0 0 0.2 776 1933)">
   <path d="m16.5527 0.78125c2.58789 0 3.85742-0.976562 4.78516-3.71094l20.5566-57.5195h0.244141l20.6055 57.5195c0.927734 2.73438 2.19727 3.71094 4.73633 3.71094 2.58789 0 4.24805-1.5625 4.24805-4.00391 0-0.830078-0.146484-1.61133-0.537109-2.63672l-22.9004-60.9863c-1.12305-2.97852-3.125-4.49219-6.25-4.49219-3.02734 0-5.07812 1.46484-6.15234 4.44336l-22.9004 61.084c-0.390625 1.02539-0.537109 1.80664-0.537109 2.63672 0 2.44141 1.5625 3.95508 4.10156 3.95508Zm10.2051-20.9473h30.6641c2.00195 0 3.66211-1.66016 3.66211-3.66211 0-2.05078-1.66016-3.66211-3.66211-3.66211h-30.6641c-2.00195 0-3.66211 1.61133-3.66211 3.66211 0 2.00195 1.66016 3.66211 3.66211 3.66211Z"/>
  </g>
  <line style="fill:none;stroke:#00AEEF;stroke-width:0.5;opacity:1.0;" x1="792.836" x2="792.836" y1="1919" y2="1933"/>
  <text style="stroke:none;fill:black;font-family:sans-serif;font-size:13;font-weight:bold;" transform="matrix(1 0 0 1 776 1953)">Margins</text>
  <text style="stroke:none;fill:black;font-family:sans-serif;font-size:13;" transform="matrix(1 0 0 1 776 1971)">Leading and trailing margins on the left and right side of each symbol</text>
  <text style="stroke:none;fill:black;font-family:sans-serif;font-size:13;" transform="matrix(1 0 0 1 776 1989)">can be adjusted by modifying the x-location of the margin guidelines.</text>
  <text style="stroke:none;fill:black;font-family:sans-serif;font-size:13;" transform="matrix(1 0 0 1 776 2007)">Modifications are automatically applied proportionally to all</text>
  <text style="stroke:none;fill:black;font-family:sans-serif;font-size:13;" transform="matrix(1 0 0 1 776 2025)">scales and weights.</text>
  <g transform="matrix(0.2 0 0 0.2 1289 1933)">
   <path d="m14.209 13.1348 7.86133 7.86133c4.29688 4.39453 9.32617 4.10156 13.8672-1.02539l60.6934-68.2129-4.88281-4.88281-60.2539 67.6758c-1.80664 1.95312-3.4668 2.44141-5.81055 0.0976562l-5.17578-5.12695c-2.29492-2.29492-1.80664-3.95508 0.195312-5.81055l67.4805-62.1582-4.88281-4.83398-68.0664 62.5977c-4.98047 4.58984-5.32227 9.47266-1.02539 13.8184Zm44.873-97.4609c-2.05078 2.00195-2.24609 4.88281-1.07422 6.78711 1.12305 1.80664 3.4668 3.02734 6.5918 2.24609 5.85938-1.66016 12.5977-2.39258 18.8965 0.927734l-2.68555 7.12891c-1.61133 4.00391-0.732422 6.88477 1.70898 9.42383l10.2539 10.3027c2.34375 2.39258 4.54102 2.44141 7.08008 1.95312l4.44336-0.732422 2.58789 2.53906-0.195312 2.24609c-0.0976562 2.29492 0.537109 4.29688 2.7832 6.49414l3.36914 3.32031c2.29492 2.29492 5.51758 2.49023 7.8125 0.195312l12.9883-13.0371c2.29492-2.34375 2.14844-5.37109-0.195312-7.66602l-3.41797-3.41797c-2.19727-2.19727-4.05273-3.02734-6.34766-2.88086l-2.34375 0.244141-2.44141-2.44141 1.02539-4.6875c0.634766-2.73438-0.244141-4.98047-2.88086-7.61719l-11.2793-11.1816c-12.9395-12.8418-35.5957-11.0352-46.6797-0.146484Zm7.08008 2.05078c8.78906-6.39648 25.9766-5.66406 33.6914 1.95312l12.3047 12.207c1.02539 1.02539 1.2207 1.80664 0.927734 3.32031l-1.46484 6.64062 6.73828 6.68945 4.39453-0.244141c1.12305-0.0488281 1.51367 0.0488281 2.34375 0.878906l2.53906 2.49023-10.8398 10.8398-2.49023-2.49023c-0.830078-0.878906-0.976562-1.2207-0.927734-2.39258l0.292969-4.3457-6.68945-6.73828-6.83594 1.17188c-1.41602 0.292969-2.05078 0.195312-3.17383-0.878906l-8.93555-8.88672c-1.07422-1.02539-1.17188-1.70898-0.488281-3.36914l4.58984-11.4746c-6.10352-6.34766-17.041-7.51953-25.5859-4.58984-0.683594 0.244141-0.927734-0.390625-0.390625-0.78125Z"/>
  </g>
  <text style="stroke:none;fill:black;font-family:sans-serif;font-size:13;font-weight:bold;" transform="matrix(1 0 0 1 1289 1953)">Exporting</text>
  <text style="stroke:none;fill:black;font-family:sans-serif;font-size:13;" transform="matrix(1 0 0 1 1289 1971)">Symbols should be outlined when exporting to ensure the</text>
  <text style="stroke:none;fill:black;font-family:sans-serif;font-size:13;" transform="matrix(1 0 0 1 1289 1989)">design is preserved when submitting to Xcode.</text>
  <text id="template-version" style="stroke:none;fill:black;font-family:sans-serif;font-size:13;text-anchor:end;" transform="matrix(1 0 0 1 3036 1933)">Template v.7.0</text>
  <text style="stroke:none;fill:black;font-family:sans-serif;font-size:13;text-anchor:end;" transform="matrix(1 0 0 1 3036 1951)">Requires Xcode 26 or greater</text>
  <text id="descriptive-name" style="stroke:none;fill:black;font-family:sans-serif;font-size:13;text-anchor:end;" transform="matrix(1 0 0 1 3036 1969)">Generated from figure.strengthtraining.traditional</text>
  <text style="stroke:none;fill:black;font-family:sans-serif;font-size:13;text-anchor:end;" transform="matrix(1 0 0 1 3036 1987)">Typeset at 100.0 points</text>
  <text style="stroke:none;fill:black;font-family:sans-serif;font-size:13;" transform="matrix(1 0 0 1 263 726)">Small</text>
  <text style="stroke:none;fill:black;font-family:sans-serif;font-size:13;" transform="matrix(1 0 0 1 263 1156)">Medium</text>
  <text style="stroke:none;fill:black;font-family:sans-serif;font-size:13;" transform="matrix(1 0 0 1 263 1586)">Large</text>
 </g>
 <g id="Guides">
  <g id="H-reference" style="fill:#27AAE1;stroke:none;" transform="matrix(1 0 0 1 339 696)">
   <path d="M0.993654 0L3.63775 0L29.3281-67.1323L30.0303-67.1323L30.0303-70.459L28.1226-70.459ZM11.6885-24.4799L46.9815-24.4799L46.2315-26.7285L12.4385-26.7285ZM55.1196 0L57.7637 0L30.6382-70.459L29.4326-70.459L29.4326-67.1323Z"/>
  </g>
  <line id="Baseline-S" style="fill:none;stroke:#27AAE1;opacity:1;stroke-width:0.5;" x1="263" x2="3036" y1="696" y2="696"/>
  <line id="Capline-S" style="fill:none;stroke:#27AAE1;opacity:1;stroke-width:0.5;" x1="263" x2="3036" y1="625.541" y2="625.541"/>
  <g id="H-reference" style="fill:#27AAE1;stroke:none;" transform="matrix(1 0 0 1 339 1126)">
   <path d="M0.993654 0L3.63775 0L29.3281-67.1323L30.0303-67.1323L30.0303-70.459L28.1226-70.459ZM11.6885-24.4799L46.9815-24.4799L46.2315-26.7285L12.4385-26.7285ZM55.1196 0L57.7637 0L30.6382-70.459L29.4326-70.459L29.4326-67.1323Z"/>
  </g>
  <line id="Baseline-M" style="fill:none;stroke:#27AAE1;opacity:1;stroke-width:0.5;" x1="263" x2="3036" y1="1126" y2="1126"/>
  <line id="Capline-M" style="fill:none;stroke:#27AAE1;opacity:1;stroke-width:0.5;" x1="263" x2="3036" y1="1055.54" y2="1055.54"/>
  <g id="H-reference" style="fill:#27AAE1;stroke:none;" transform="matrix(1 0 0 1 339 1556)">
   <path d="M0.993654 0L3.63775 0L29.3281-67.1323L30.0303-67.1323L30.0303-70.459L28.1226-70.459ZM11.6885-24.4799L46.9815-24.4799L46.2315-26.7285L12.4385-26.7285ZM55.1196 0L57.7637 0L30.6382-70.459L29.4326-70.459L29.4326-67.1323Z"/>
  </g>
  <line id="Baseline-L" style="fill:none;stroke:#27AAE1;opacity:1;stroke-width:0.5;" x1="263" x2="3036" y1="1556" y2="1556"/>
  <line id="Capline-L" style="fill:none;stroke:#27AAE1;opacity:1;stroke-width:0.5;" x1="263" x2="3036" y1="1485.54" y2="1485.54"/>
  <line id="right-margin-Black-S" style="fill:none;stroke:#00AEEF;stroke-width:0.5;opacity:1.0;" x1="2993.34" x2="2993.34" y1="600.785" y2="720.121"/>
  <line id="left-margin-Black-S" style="fill:none;stroke:#00AEEF;stroke-width:0.5;opacity:1.0;" x1="2873.46" x2="2873.46" y1="600.785" y2="720.121"/>
  <line id="right-margin-Regular-S" style="fill:none;stroke:#00AEEF;stroke-width:0.5;opacity:1.0;" x1="1506.24" x2="1506.24" y1="600.785" y2="720.121"/>
  <line id="left-margin-Regular-S" style="fill:none;stroke:#00AEEF;stroke-width:0.5;opacity:1.0;" x1="1393.45" x2="1393.45" y1="600.785" y2="720.121"/>
  <line id="right-margin-Ultralight-S" style="fill:none;stroke:#00AEEF;stroke-width:0.5;opacity:1.0;" x1="610.795" x2="610.795" y1="600.785" y2="720.121"/>
  <line id="left-margin-Ultralight-S" style="fill:none;stroke:#00AEEF;stroke-width:0.5;opacity:1.0;" x1="508.628" x2="508.628" y1="600.785" y2="720.121"/>
 </g>
 <g id="Symbols">
  <g id="Black-S" transform="matrix(1 0 0 1 2873.46 696)">
   <path class="monochrome-0 multicolor-0:tintColor hierarchical-0:primary SFSymbolsPreviewWireframe" d="M59.9609-66.9434C65.332-66.9434 69.7266-71.3379 69.7266-76.709C69.7266-82.0801 65.332-86.4746 59.9609-86.4746C54.5898-86.4746 50.1953-82.0801 50.1953-76.709C50.1953-71.3379 54.5898-66.9434 59.9609-66.9434ZM50.0488-38.2812L69.9219-38.2812L69.9219-43.0664C69.9219-43.5059 70.3125-43.5547 70.5078-43.1641L80.9082-22.0215C82.1289-19.5312 85.2051-18.457 87.7441-19.7754C90.1367-20.9961 91.1621-24.0723 89.9414-26.5625L75-56.7871C73.0469-60.7422 69.3848-63.0371 64.8438-63.0371L55.0781-63.0371C50.5371-63.0371 46.875-60.7422 44.9219-56.7871L29.9805-26.5625C28.7598-24.0723 29.834-20.9961 32.2266-19.7754C34.7168-18.457 37.793-19.5312 39.0137-22.0215L49.4629-43.1641C49.6582-43.5547 50.0488-43.5059 50.0488-43.0664ZM43.3105 15.4297C45.752 15.8691 48.5352 14.6484 49.2676 11.2793L53.0273-6.05469L59.9609-16.4551L66.8945-6.05469L70.6543 11.2793C71.4355 14.7461 74.2676 15.918 76.709 15.3809C79.1992 14.8926 81.25 12.5977 80.5176 9.13086L76.6602-8.93555C76.6113-9.27734 76.5137-9.61914 76.3672-10.0098L72.6074-20.6543L47.3633-20.6543L43.5547-10.0098C43.4082-9.61914 43.3105-9.27734 43.2617-8.93555L39.4043 9.13086C38.623 12.6953 40.8203 14.9414 43.3105 15.4297ZM19.9707-14.4531L21.875-14.4531C24.3652-14.4531 26.1719-16.3086 26.1719-18.8477L26.1719-40.1855C26.1719-42.7246 24.3652-44.5312 21.875-44.5312L19.9707-44.5312C17.4316-44.5312 15.625-42.7246 15.625-40.1855L15.625-18.8477C15.625-16.3086 17.4316-14.4531 19.9707-14.4531ZM97.998-14.4531L99.9512-14.4531C102.441-14.4531 104.248-16.3086 104.248-18.8477L104.248-40.1855C104.248-42.7246 102.441-44.5312 99.9512-44.5312L97.998-44.5312C95.5078-44.5312 93.7012-42.7246 93.7012-40.1855L93.7012-18.8477C93.7012-16.3086 95.5078-14.4531 97.998-14.4531ZM13.6719-25.5859L106.201-25.5859C108.398-25.5859 110.107-27.3438 110.107-29.4922C110.107-31.6406 108.398-33.3984 106.201-33.3984L13.6719-33.3984C11.4746-33.3984 9.76562-31.6406 9.76562-29.4922C9.76562-27.3438 11.4746-25.5859 13.6719-25.5859Z"/>
  </g>
  <g id="Regular-S" transform="matrix(1 0 0 1 1393.45 696)">
   <path class="monochrome-0 multicolor-0:tintColor hierarchical-0:primary SFSymbolsPreviewWireframe" d="M56.4453-65.4297C61.084-65.4297 64.9414-69.1895 64.9414-73.9746C64.9414-78.6133 61.084-82.4219 56.4453-82.4219C51.709-82.4219 47.9492-78.6133 47.9492-73.9746C47.9492-69.1895 51.709-65.4297 56.4453-65.4297ZM47.9004-36.6211L65.0391-36.6211L65.0391-45.6055C65.0391-46.2891 66.0645-46.582 66.4551-45.752L77.2949-23.6816C78.2715-21.7773 80.6152-20.9473 82.5684-21.9727C84.4238-22.9004 85.2539-25.2441 84.2773-27.1973L69.9707-56.1035C68.2617-59.5703 65.0879-61.5234 61.084-61.5234L51.7578-61.5234C47.8027-61.5234 44.5801-59.5703 42.8711-56.1035L28.6133-27.1973C27.6367-25.2441 28.4668-22.9004 30.2734-21.9727C32.2266-20.9473 34.5703-21.7773 35.5469-23.6816L46.4844-45.752C46.875-46.582 47.9004-46.3379 47.9004-45.6543ZM40.625 11.6699C42.5293 12.0605 44.6777 11.084 45.2637 8.39844L48.877-8.30078L56.4453-21.9238L63.9648-8.30078L67.5781 8.39844C68.1641 11.1816 70.5078 12.1094 72.4121 11.6211C74.2676 11.1328 75.7324 9.375 75.1953 6.68945L71.4844-10.5469C71.4355-10.8887 71.3867-11.1328 71.2402-11.4746L66.748-24.1699L46.1426-24.1699L41.6016-11.4746C41.4551-11.1328 41.4062-10.8887 41.3574-10.5469L37.6953 6.68945C37.1094 9.47266 38.7695 11.2793 40.625 11.6699ZM18.1152-17.334L20.0684-17.334C21.7285-17.334 22.8027-18.5059 22.8027-20.166L22.8027-40.7227C22.8027-42.3828 21.7285-43.457 20.0684-43.457L18.1152-43.457C16.4551-43.457 15.332-42.3828 15.332-40.7227L15.332-20.166C15.332-18.5059 16.4551-17.334 18.1152-17.334ZM92.7734-17.334L94.7266-17.334C96.3867-17.334 97.4609-18.5059 97.4609-20.166L97.4609-40.7227C97.4609-42.3828 96.3867-43.457 94.7266-43.457L92.7734-43.457C91.1133-43.457 89.9902-42.3828 89.9902-40.7227L89.9902-20.166C89.9902-18.5059 91.1133-17.334 92.7734-17.334ZM12.1094-28.0273L100.684-28.0273C102.002-28.0273 103.027-29.1016 103.027-30.4199C103.027-31.7383 102.002-32.7637 100.684-32.7637L12.1094-32.7637C10.791-32.7637 9.76562-31.7383 9.76562-30.4199C9.76562-29.1016 10.791-28.0273 12.1094-28.0273Z"/>
  </g>
  <g id="Ultralight-S" transform="matrix(1 0 0 1 508.628 696)">
   <path class="monochrome-0 multicolor-0:tintColor hierarchical-0:primary SFSymbolsPreviewWireframe" d="M51.087-62.7505C55.3623-62.7505 58.8565-66.1924 58.8565-70.5235C58.8565-74.7534 55.3623-78.1988 51.087-78.1988C46.8501-78.1988 43.4082-74.7534 43.4082-70.5235C43.4082-66.1924 46.8501-62.7505 51.087-62.7505ZM43.3594-34.9863L58.9087-34.9863L58.9087-44.8335C58.9087-45.4263 59.8433-45.7192 60.1885-44.98L70.1202-24.9077C71.0059-23.1396 73.0772-22.4004 74.8487-23.335C76.5225-24.1719 77.3072-26.334 76.4214-28.0601L63.4317-54.3325C61.8589-57.4815 58.9576-59.2984 55.3169-59.2984L46.899-59.2984C43.2618-59.2984 40.357-57.4815 38.7842-54.3325L25.7979-28.0601C24.9121-26.334 25.6968-24.1719 27.3672-23.335C29.1387-22.4004 31.21-23.1396 32.0957-24.9077L42.0342-44.98C42.4248-45.7192 43.3594-45.4751 43.3594-44.8823ZM36.7652 7.26517C38.4424 7.61039 40.4092 6.72464 40.9497 4.31156L44.2452-10.8891L51.087-24.4668L57.9253-10.8891L61.2662 4.31156C61.8067 6.86771 63.9688 7.70462 65.7369 7.21634C67.3653 6.72806 68.6485 5.15189 68.1568 2.7388L64.8091-12.9082C64.7603-13.2046 64.6661-13.4487 64.565-13.7451L59.8912-26.9399L42.3736-26.9399L37.6055-13.7451C37.5044-13.4487 37.4556-13.2046 37.4068-12.9082L34.0625 2.7388C33.522 5.29495 35.0005 6.91996 36.7652 7.26517ZM15.3906-19.105L18.8877-19.105C19.8213-19.105 20.5322-19.8682 20.5322-20.7563L20.5322-41.2222C20.5322-42.1558 19.8213-42.8667 18.8877-42.8667L15.3906-42.8667C14.457-42.8667 13.7427-42.1558 13.7427-41.2222L13.7427-20.7563C13.7427-19.8682 14.457-19.105 15.3906-19.105ZM83.2374-19.105L86.7798-19.105C87.7134-19.105 88.4244-19.8682 88.4244-20.7563L88.4244-41.2222C88.4244-42.1558 87.7134-42.8667 86.7798-42.8667L83.2374-42.8667C82.3492-42.8667 81.6348-42.1558 81.6348-41.2222L81.6348-20.7563C81.6348-19.8682 82.3492-19.105 83.2374-19.105ZM10.7925-29.9346L91.3746-29.9346C91.921-29.9346 92.4015-30.4184 92.4015-30.9648C92.4015-31.5566 91.921-32.0371 91.3746-32.0371L10.7925-32.0371C10.2461-32.0371 9.76562-31.5566 9.76562-30.9648C9.76562-30.4184 10.2461-29.9346 10.7925-29.9346Z"/>
  </g>
 </g>
</svg>
