<?xml version="1.0" encoding="UTF-8"?>
<!--Generator: Apple Native CoreSVG 341-->
<!DOCTYPE svg
PUBLIC "-//W3C//DTD SVG 1.1//EN"
       "http://www.w3.org/Graphics/SVG/1.1/DTD/svg11.dtd">
<svg version="1.1" xmlns="http://www.w3.org/2000/svg" xmlns:xlink="http://www.w3.org/1999/xlink" viewBox="0 0 188.312 192.438">
 <g>
  <rect height="192.438" opacity="0" width="188.312" x="0" y="0"/>
  <path d="M94.25 34.6875C103.75 34.6875 111.562 26.9375 111.562 17.25C111.562 7.75 103.75 0 94.25 0C84.625 0 76.9375 7.75 76.9375 17.25C76.9375 26.9375 84.625 34.6875 94.25 34.6875ZM76.8125 94.5625L111.75 94.5625L111.75 74.9375C111.75 73.625 113.812 73 114.562 74.625L136.75 119.625C138.75 123.562 143.5 125.25 147.438 123.125C151.188 121.25 152.938 116.438 150.938 112.438L121.812 53.625C118.375 46.5625 111.812 42.5 103.688 42.5L84.75 42.5C76.625 42.5 70.125 46.5625 66.625 53.625L37.5 112.438C35.5 116.438 37.25 121.25 41 123.125C44.9375 125.25 49.6875 123.562 51.6875 119.625L73.9375 74.625C74.75 73 76.8125 73.5 76.8125 74.875ZM62.0625 191.625C65.875 192.438 70.25 190.438 71.4375 185L78.875 150.938L94.25 122.25L109.562 150.938L117 185C118.188 190.688 122.938 192.562 126.875 191.562C130.562 190.5 133.562 186.938 132.438 181.562L124.875 146.438C124.812 145.75 124.688 145.25 124.375 144.562L114.75 117.312L73.8125 117.312L64 144.562C63.75 145.25 63.625 145.75 63.5625 146.438L56.0625 181.562C54.8125 187.188 58.1875 190.875 62.0625 191.625ZM15.4375 132.562L20.8125 132.562C23.6875 132.562 25.75 130.438 25.75 127.5L25.75 84.25C25.75 81.3125 23.6875 79.3125 20.8125 79.3125L15.4375 79.3125C12.5 79.3125 10.5 81.3125 10.5 84.25L10.5 127.5C10.5 130.438 12.5 132.562 15.4375 132.562ZM167.562 132.562L172.875 132.562C175.812 132.562 177.812 130.438 177.812 127.5L177.812 84.25C177.812 81.3125 175.812 79.3125 172.875 79.3125L167.562 79.3125C164.625 79.3125 162.625 81.3125 162.625 84.25L162.625 127.5C162.625 130.438 164.625 132.562 167.562 132.562ZM3.9375 109.875L184.375 109.875C186.562 109.875 188.312 108.125 188.312 105.938C188.312 103.75 186.562 102 184.375 102L3.9375 102C1.75 102 0 103.75 0 105.938C0 108.125 1.75 109.875 3.9375 109.875Z" fill="black" fill-opacity="0.85"/>
 </g>
</svg>
